<svg width="33" height="33" viewBox="0 0 40 40" fill="none" xmlns="http://www.w3.org/2000/svg">
<rect x="1.61719" y="1.61719" width="35.766" height="35.766" rx="17.883" fill="transparent"/>
<path d="M28.2126 30.702V28.2126C28.2126 26.8922 27.7537 25.6258 26.9367 24.6921C26.1197 23.7584 25.0116 23.2339 23.8563 23.2339H15.1435C13.9881 23.2339 12.88 23.7584 12.0631 24.6921C11.2461 25.6258 10.7871 26.8922 10.7871 28.2126V30.702" stroke="#fff" stroke-width="2" stroke-linecap="round" stroke-linejoin="round"/>
<path d="M19.4999 17.4255C22.0204 17.4255 24.0637 15.3822 24.0637 12.8617C24.0637 10.3411 22.0204 8.29785 19.4999 8.29785C16.9793 8.29785 14.936 10.3411 14.936 12.8617C14.936 15.3822 16.9793 17.4255 19.4999 17.4255Z" stroke="#fff" stroke-width="2" stroke-linecap="round" stroke-linejoin="round"/>
</svg>
