<svg width="33" height="33" viewBox="0 0 33 31" fill="none" xmlns="http://www.w3.org/2000/svg">
<path d="M9.10635 30.0428C10.0229 30.0428 10.7659 29.2998 10.7659 28.3832C10.7659 27.4666 10.0229 26.7236 9.10635 26.7236C8.18979 26.7236 7.44678 27.4666 7.44678 28.3832C7.44678 29.2998 8.18979 30.0428 9.10635 30.0428Z" fill="#fff"/>
<path d="M19.8935 30.0428C20.81 30.0428 21.553 29.2998 21.553 28.3832C21.553 27.4666 20.81 26.7236 19.8935 26.7236C18.9769 26.7236 18.2339 27.4666 18.2339 28.3832C18.2339 29.2998 18.9769 30.0428 19.8935 30.0428Z" fill="#fff"/>
<path d="M1.63818 9.29785H5.40994L7.93702 21.8898C8.02325 22.3228 8.25942 22.7117 8.6042 22.9885C8.94897 23.2653 9.38038 23.4123 9.8229 23.4039H18.9883C19.4308 23.4123 19.8622 23.2653 20.207 22.9885C20.5518 22.7117 20.7879 22.3228 20.8742 21.8898L22.3829 13.9999H6.35288" stroke="#fff" stroke-width="2" stroke-linecap="round" stroke-linejoin="round"/>
</svg>
