<svg width="28" height="28" viewBox="0 0 28 28" fill="none" xmlns="http://www.w3.org/2000/svg">
<mask id="mask0_1701_37596" style="mask-type:alpha" maskUnits="userSpaceOnUse" x="0" y="0" width="28" height="28">
<rect width="28" height="28" fill="#D9D9D9"/>
</mask>
<g mask="url(#mask0_1701_37596)">
<mask id="mask1_1701_37596" style="mask-type:alpha" maskUnits="userSpaceOnUse" x="0" y="0" width="28" height="28">
<rect width="28" height="28" fill="#D9D9D9"/>
</mask>
<g mask="url(#mask1_1701_37596)">
<path d="M23.0415 26.3375L14.2332 17.5291C13.6109 18.5791 12.7651 19.4203 11.6957 20.0526C10.6262 20.6842 9.44984 21 8.1665 21C6.22206 21 4.56928 20.3194 3.20817 18.9583C1.84706 17.5972 1.1665 15.9444 1.1665 14C1.1665 12.7166 1.48228 11.5402 2.11384 10.4708C2.74617 9.40134 3.58734 8.55551 4.63734 7.93328L1.66234 4.95828L3.32484 3.32495L24.6748 24.7041L23.0415 26.3375ZM24.4998 10.5L27.9998 14L22.6623 19.3375L18.9582 15.6625L20.4165 14.5833L22.5165 16.1583L24.704 14L23.5373 12.8333H16.129L13.7957 10.5H24.4998ZM8.1665 18.6666C9.15817 18.6666 10.0378 18.3991 10.8055 17.864C11.5739 17.3296 12.1332 16.6347 12.4832 15.7791L6.38734 9.68328C5.53178 10.0333 4.83684 10.5925 4.3025 11.361C3.76739 12.1286 3.49984 13.0083 3.49984 14C3.49984 15.2833 3.95678 16.3819 4.87067 17.2958C5.78456 18.2097 6.88317 18.6666 8.1665 18.6666ZM8.1665 16.3333C7.52484 16.3333 6.97573 16.1046 6.51917 15.6473C6.06184 15.1907 5.83317 14.6416 5.83317 14C5.83317 13.3583 6.06184 12.8088 6.51917 12.3515C6.97573 11.8949 7.52484 11.6666 8.1665 11.6666C8.80817 11.6666 9.35728 11.8949 9.81384 12.3515C10.2712 12.8088 10.4998 13.3583 10.4998 14C10.4998 14.6416 10.2712 15.1907 9.81384 15.6473C9.35728 16.1046 8.80817 16.3333 8.1665 16.3333Z" fill="#598392"/>
</g>
</g>
</svg>
