<svg width="28" height="28" viewBox="0 0 28 28" fill="none" xmlns="http://www.w3.org/2000/svg">
<mask id="mask0_1701_37467" style="mask-type:alpha" maskUnits="userSpaceOnUse" x="0" y="0" width="28" height="28">
<rect width="28" height="28" fill="#D9D9D9"/>
</mask>
<g mask="url(#mask0_1701_37467)">
<path d="M8.1665 16.3333C7.52484 16.3333 6.97573 16.1047 6.51917 15.6473C6.06184 15.1908 5.83317 14.6417 5.83317 14C5.83317 13.3583 6.06184 12.8088 6.51917 12.3515C6.97573 11.8949 7.52484 11.6667 8.1665 11.6667C8.80817 11.6667 9.35728 11.8949 9.81384 12.3515C10.2712 12.8088 10.4998 13.3583 10.4998 14C10.4998 14.6417 10.2712 15.1908 9.81384 15.6473C9.35728 16.1047 8.80817 16.3333 8.1665 16.3333ZM8.1665 21C6.22206 21 4.56928 20.3194 3.20817 18.9583C1.84706 17.5972 1.1665 15.9444 1.1665 14C1.1665 12.0556 1.84706 10.4028 3.20817 9.04167C4.56928 7.68056 6.22206 7 8.1665 7C9.46928 7 10.6507 7.32083 11.7108 7.9625C12.7702 8.60417 13.6109 9.45 14.2332 10.5H24.4998L27.9998 14L22.7498 19.25L20.4165 17.5L18.0832 19.25L15.604 17.5H14.2332C13.6109 18.55 12.7702 19.3958 11.7108 20.0375C10.6507 20.6792 9.46928 21 8.1665 21ZM8.1665 18.6667C9.25539 18.6667 10.2132 18.3361 11.04 17.675C11.866 17.0139 12.4151 16.1778 12.6873 15.1667H16.3332L18.0248 16.3625L20.4165 14.5833L22.4873 16.1875L24.6748 14L23.5082 12.8333H12.6873C12.4151 11.8222 11.866 10.9861 11.04 10.325C10.2132 9.66389 9.25539 9.33333 8.1665 9.33333C6.88317 9.33333 5.78456 9.79028 4.87067 10.7042C3.95678 11.6181 3.49984 12.7167 3.49984 14C3.49984 15.2833 3.95678 16.3819 4.87067 17.2958C5.78456 18.2097 6.88317 18.6667 8.1665 18.6667Z" fill="#598392"/>
</g>
</svg>
